<?xml version="1.0" encoding="UTF-8"?>
<svg id="Camada_2" data-name="Camada 2" xmlns="http://www.w3.org/2000/svg" viewBox="0 0 1202.63 446.21">
  <g id="Camada_1-2" data-name="Camada 1">
    <g>
      <path d="M562.81,139.8l-2.14,116.56,3.34,3.8h87.86v-120.36h57.77c-.77,2.36,2.41,5.22,2.41,6.02v293.68l-3.61,3.61h-56.57v-127.58h-89.07v123.97c0,2-5.87,4.22-8.32,3.77l-51.86-.16V143.41l3.61-3.61h56.57Z"/>
      <path d="M817.97,139.8v213.04c0,1.56,7.67,19.46,9.58,21.72,15.06,17.81,53.62,18.42,67.53-.63,1.03-1.41,7.15-15.39,7.15-16.27v-217.85h60.18v232.29c0,1.06-5.1,17.85-6.08,20.4-32.23,84.24-198.54,64.53-198.54-25.22v-227.48h60.18Z"/>
      <polygon points="930.13 2.24 957.14 60.25 957.63 2.24 977.63 2.24 977.63 107.24 959.13 107.24 930.63 47.24 930.63 105.74 929.13 107.24 910.63 107.24 910.63 2.24 930.13 2.24"/>
      <path d="M1062.63,72.24c-.75,15.43-5.54,29.09-21.55,33.95-16.41,4.98-38.35.98-46.15-15.74-6.22-13.33-6.15-58.03-.08-71.49,11.88-26.33,59.95-25.83,66.33,5.23.32,1.55,1.57,12.75,1.37,13.4-.99,3.18-5.32.73-7.43.66s-11.99.37-12.44-.06c-.56-.53-.76-10.59-4.4-14.6-6.99-7.69-21.02-4.29-24.69,5.1-2.86,7.32-2.92,37.32-1.51,45.6,1.88,11.02,12.08,17.36,22.56,12.45,7.31-3.42,7.13-14.51,7.99-14.51h20Z"/>
      <path d="M695.63,2.24v18h-30v22.5c0,.27-1.59,1.04-.06,2.02,8.45,1.93,17.37-.28,26.06.48v19h-26v23h28.5l1.5,1.5v18.5h-49.5l-1.5-1.5V2.24h51Z"/>
      <path d="M758.63,2.24v18h-30v25h26v19h-24.5l-1.5,1.5v19c0,.62.78,1.51,0,2.49,5.95.02,11.56,1.05,17.56,1.05,2.15,0,12.45-2.58,12.45.46v18.5h-50V2.24h50Z"/>
      <path d="M1125.63,2.24v18h-28.5l-1.5,1.5v23l1.5,1.28c.41.03.75-.78,1-.78h23.5v16.5c0,.16,1.72,2.5-.5,2.5h-25.5v23h30v20h-48.5l-.5-105h49Z"/>
      <path d="M555.63,2.24v17.5l-1.5,1.28c-.41.03-.75-.78-1-.78h-28l-1.5,1.5v24.5h27v17.5l-1.5,1.5h-25.5l.81,39.74c.37.8-.95,2.26-1.31,2.26h-20.5V2.24h53Z"/>
      <polygon points="791.63 2.24 791.63 85.74 793.13 87.24 819.63 87.24 818.63 107.24 771.63 107.24 771.63 2.24 791.63 2.24"/>
      <path d="M1177.84,298.68c-10.01-7.48-19.63-7.97-30.04-13.24,18.38-8.92,30.44-13.05,38.92-33.25,15.15-36.1,4.75-83.2-31.24-102.07-3.06-1.6-24.39-10.32-25.78-10.32h-119.16v300.9c24.31,2.41,48.97,3.4,73.51,2.52,35.64-1.28,78.91-4.48,102.22-35.02,22.74-29.8,23.42-85.71-8.43-109.52ZM1068.32,190.35c12.05,1.48,28.32-2.03,39.72,0,24.59,4.38,32.53,40.13,18.12,58.39-10.69,13.55-42.33,11.38-57.84,11.41v-69.81ZM1110.45,387.74h-38.52l-3.61-3.61v-69.81l3.61-3.61h38.52c2.65,0,17.55,6.31,20.28,8.61,20.73,17.48,9.22,68.42-20.28,68.42Z"/>
      <path d="M606.13,2.24c-11.89-1.42-26.33,1.05-38.5,0v103.5l1.5,1.5h18.5v-37l9.86.14,14.64,36.86h20.5l-16.98-40.5c25.92-13.67,22.41-60.69-9.52-64.5ZM610.12,43.23c-3.5,9.96-13.66,9.37-22.49,9.01V20.24c16.41-2.34,28.73,5.24,22.49,22.99Z"/>
      <path d="M1185.86,66.7c22.35-10.56,22.04-51.05.14-61.33-1.34-.63-8.04-3.13-8.87-3.13h-38.5v105h18.5c2.71,0,.51-6.76.46-8.46-.14-4.84-.85-23.75.19-26.9.77-2.35,8.15-2.25,8.97-1.05l13.89,36.41h22l-16.77-40.54ZM1179.85,43.96c-3.73,9.49-13.7,8.34-22.22,8.28V20.24c16.22-2.86,28.81,6.96,22.22,23.72Z"/>
      <path d="M875.15,3.22c-1.73-2.3-18.96-.26-22.94-1.03l-27.58,105.06h20.5c2.44,0,4.33-19.25,6.94-19.71l24.42.85,4.14,18.86h21l-26.48-104.02ZM854.63,70.24l9.49-36.01,8.51,36.01h-18Z"/>
    </g>
    <g>
      <path d="M378.64,63.21C263.74-45.04,70.32-3.53,14.94,143.28c-64.09,169.92,87.79,343.63,269.2,294.46,166.96-45.26,219.89-256.4,94.51-374.53ZM375.07,329.19c-19.1,2.17-42.52-.16-61.78-.08-20.64.09-47.11-1.82-66.95,0-7.48.69-12.83,3.12-16.36,9.92-6.34,12.23-9.47,35-14.16,49.12-1.18,3.56-3.6,12.37-5.77,14.73-5.29,5.77-18.1,6.18-25.49,5.34-12.83-1.46-7.33-14.32-5.3-22.52,5.13-20.69,12.45-47.56,19.2-67.65,4.83-14.37,9.82-18.36,25.4-19.55,4.06-.31,8.89.84,12.43.77,33.11-.62,66.34.03,99.63,0,2.85,0,6.24-1.7,9.47-.98,1.26-32.75-23.82-62.46-55.47-71.04-21.2-5.74-90.24-4.98-114.15-3.04-43.08,3.49-71.19,35.92-73.86,77.11-1.36,20.93,2.79,44.43,1.31,64.29-.1,1.33.69,4.13-1.88,3.06-2.48-1.03-10.24-8.69-12.65-11.09C-36.11,233.33,63.14,20.74,242.6,36.5c132.16,11.6,213.58,159.04,149.69,273.74-3.61,6.48-9.43,18.07-17.22,18.96Z"/>
      <path d="M212.68,86.2c94.92-13.39,100.14,132.71,3.47,123.16-71.32-7.05-70.29-113.73-3.47-123.16Z"/>
    </g>
  </g>
</svg>